<?xml version="1.0" encoding="UTF-8"?>
<!-- Created with Inkscape (http://www.inkscape.org/) -->
<svg width="210mm" height="297mm" version="1.1" viewBox="0 0 210 297" xmlns="http://www.w3.org/2000/svg">
 <path transform="matrix(1.0005 0 0 1 34.132 57.2)" d="m64.224 87.305c4.6792 2.9182-1.6251 7.7473-4.8503 7.7772-8.7399 0.081101-12.544-10.256-10.704-17.478 3.2911-12.918 18.467-17.86 30.105-13.631 17.079 6.2058 23.3 26.778 16.558 42.733-8.9856 21.265-35.123 28.79-55.36 19.485-25.467-11.71-34.307-43.483-22.412-67.988 14.407-29.679 51.852-39.839 80.615-25.339 33.897 17.088 45.38 60.226 28.265 93.243-19.759 38.119-68.604 50.927-105.87 31.192-42.344-22.424-56.479-76.984-34.119-118.5 25.084-46.571 85.367-62.033 131.12-37.046 50.8 27.741 67.591 93.751 39.973 143.75" fill="#d09c10" fill-rule="evenodd" stroke="#000" stroke-width=".26458"/>
</svg>
